<?xml version="1.0" encoding="utf-8"?>
<!-- Generator: Adobe Illustrator 27.5.0, SVG Export Plug-In . SVG Version: 6.00 Build 0)  -->
<svg version="1.1" id="Layer_1" xmlns="http://www.w3.org/2000/svg" xmlns:xlink="http://www.w3.org/1999/xlink" x="0px" y="0px"
	 viewBox="-24.062 -92.32 83.736 73.248" style="enable-background:new -24.062 -92.32 83.736 73.248;" xml:space="preserve">
<rect x="-24.062" y="-92.321" style="fill:#FFFFFF;" width="83.736" height="73.25"/>
<g>
	<g>
		<g>
			<g>
				<path style="fill:#63635A;" d="M8.405-32.483C8.55-32.567,8.719-32.6,8.907-32.6C9.3-32.6,9.5-32.405,9.5-32.012v0.844H9.37
					v-0.234l-0.011,0.008c-0.007,0.004-0.011,0.014-0.022,0.029c-0.009,0.006-0.02,0.018-0.029,0.033
					c-0.019,0.014-0.026,0.031-0.051,0.043c-0.017,0.016-0.038,0.029-0.056,0.047C9.18-31.225,9.154-31.211,9.127-31.2
					c-0.029,0.016-0.06,0.031-0.086,0.041c-0.032,0.002-0.066,0.012-0.101,0.025c-0.038,0.008-0.074,0.008-0.115,0.008
					c-0.174,0-0.309-0.051-0.405-0.135c-0.1-0.092-0.149-0.205-0.149-0.338c0-0.139,0.057-0.244,0.167-0.32
					c0.112-0.086,0.254-0.129,0.433-0.129h0.488c0-0.211-0.077-0.348-0.253-0.406C9.058-32.469,9-32.479,8.935-32.479
					c-0.063,0-0.12,0-0.175,0.01c-0.055,0.006-0.1,0.016-0.134,0.025c-0.037,0.012-0.064,0.021-0.088,0.033
					c-0.021,0.008-0.04,0.021-0.058,0.031c-0.022,0.014-0.027,0.018-0.035,0.018L8.405-32.483z M9.37-31.758
					c0-0.086,0-0.139,0-0.158c-0.033,0-0.07,0-0.107,0c-0.044,0-0.083,0-0.121,0c-0.036,0-0.081,0-0.136,0
					c-0.124,0-0.229,0.006-0.316,0.02c-0.085,0.016-0.157,0.053-0.202,0.104c-0.018,0.025-0.034,0.047-0.045,0.072
					c-0.013,0.039-0.022,0.078-0.023,0.115c-0.007,0.039,0.001,0.08,0.013,0.121c0.014,0.041,0.037,0.074,0.066,0.111
					c0.029,0.025,0.068,0.055,0.128,0.078c0.054,0.021,0.126,0.035,0.203,0.035c0.056,0,0.106-0.004,0.152-0.019
					c0.044-0.01,0.084-0.022,0.117-0.031c0.036-0.016,0.064-0.037,0.093-0.049c0.028-0.021,0.05-0.043,0.064-0.063
					c0.023-0.021,0.035-0.037,0.054-0.063c0.008-0.021,0.02-0.041,0.026-0.06c0.003-0.021,0.017-0.037,0.018-0.053
					c0.007-0.018,0.007-0.029,0.018-0.045C9.37-31.643,9.37-31.682,9.37-31.758z"/>
				<path style="fill:#63635A;" d="M10.914-32.581h0.493v0.117h-0.493v0.676v0.008v0.014c0,0.012,0,0.039,0,0.068
					c-0.002,0.041-0.002,0.063-0.002,0.08c0,0.019,0.002,0.039,0.002,0.07c0,0.027,0.008,0.055,0.01,0.068
					c0.009,0.023,0.019,0.035,0.022,0.063c0.017,0.021,0.025,0.043,0.044,0.057c0.091,0.104,0.233,0.117,0.419,0.049l0.009,0.127
					l-0.026,0.004c-0.007,0.004-0.021,0.004-0.027,0.012c-0.008,0-0.019,0-0.04,0.01c-0.017,0.002-0.034,0.002-0.046,0.002
					c-0.014,0.01-0.036,0.01-0.056,0.01c-0.024,0-0.049,0-0.064,0c-0.02,0-0.042-0.01-0.064-0.012
					c-0.022-0.01-0.042-0.01-0.064-0.021c-0.022-0.012-0.042-0.02-0.066-0.033c-0.022-0.012-0.041-0.033-0.066-0.051
					c-0.036-0.037-0.066-0.096-0.09-0.162c-0.017-0.088-0.03-0.135-0.033-0.172c0-0.039,0-0.1,0-0.168v-0.021v-0.676h-0.203v-0.117
					h0.203v-0.461h0.137V-32.581z"/>
				<path style="fill:#63635A;" d="M11.667-32.483c0.151-0.084,0.316-0.117,0.505-0.117c0.394,0,0.592,0.195,0.592,0.588v0.844
					h-0.137v-0.234l-0.008,0.008c-0.006,0.004-0.006,0.014-0.022,0.029c-0.009,0.006-0.014,0.018-0.031,0.033
					c-0.01,0.014-0.027,0.031-0.043,0.043c-0.019,0.016-0.039,0.029-0.061,0.047c-0.024,0.018-0.046,0.031-0.074,0.043
					c-0.028,0.016-0.058,0.031-0.088,0.041c-0.027,0.002-0.061,0.012-0.098,0.025c-0.036,0.008-0.08,0.008-0.115,0.008
					c-0.171,0-0.308-0.051-0.404-0.135c-0.098-0.092-0.15-0.205-0.15-0.338c0-0.139,0.052-0.244,0.17-0.32
					c0.11-0.086,0.252-0.129,0.431-0.129h0.488c0-0.211-0.083-0.348-0.252-0.406c-0.046-0.016-0.104-0.025-0.171-0.025
					c-0.064,0-0.125,0-0.177,0.01c-0.052,0.006-0.1,0.016-0.135,0.025c-0.034,0.012-0.061,0.021-0.085,0.033
					c-0.022,0.008-0.04,0.021-0.062,0.031c-0.014,0.014-0.022,0.018-0.025,0.018L11.667-32.483z M12.632-31.758
					c0-0.086,0-0.139,0-0.158c-0.035,0-0.068,0-0.109,0c-0.039,0-0.077,0-0.115,0c-0.039,0-0.085,0-0.142,0
					c-0.122,0-0.226,0.006-0.311,0.02c-0.09,0.016-0.159,0.053-0.206,0.104c-0.017,0.025-0.032,0.047-0.046,0.072
					c-0.012,0.039-0.017,0.078-0.02,0.115c-0.005,0.039,0,0.08,0.009,0.121c0.018,0.041,0.04,0.074,0.064,0.111
					c0.031,0.025,0.074,0.055,0.129,0.078c0.059,0.021,0.123,0.035,0.208,0.035c0.057,0,0.103-0.004,0.147-0.019
					c0.044-0.01,0.083-0.022,0.118-0.031c0.036-0.016,0.066-0.037,0.092-0.049c0.027-0.021,0.052-0.043,0.071-0.063
					c0.016-0.021,0.03-0.037,0.043-0.063c0.017-0.021,0.022-0.041,0.031-0.06c0.011-0.021,0.016-0.037,0.016-0.053
					c0.006-0.018,0.009-0.029,0.014-0.045C12.629-31.643,12.632-31.682,12.632-31.758z"/>
				<path style="fill:#63635A;" d="M14.534-31.391L14.534-31.391c-0.005,0.039-0.007,0.09-0.017,0.166
					c-0.008,0.057-0.03,0.117-0.066,0.172c-0.038,0.061-0.087,0.117-0.142,0.166c-0.061,0.049-0.129,0.09-0.213,0.123
					c-0.083,0.039-0.169,0.053-0.26,0.053c-0.184,0-0.359-0.053-0.538-0.141v-0.176c0.115,0.123,0.286,0.189,0.529,0.189
					c0.077,0,0.146-0.014,0.206-0.035c0.061-0.022,0.104-0.041,0.14-0.066c0.042-0.02,0.074-0.059,0.102-0.104
					c0.035-0.041,0.054-0.072,0.065-0.104c0.017-0.033,0.025-0.066,0.036-0.113c0.013-0.041,0.014-0.066,0.014-0.088
					c0.003-0.006,0.003-0.023,0.005-0.047v-0.211c-0.024,0.039-0.055,0.074-0.085,0.107c-0.035,0.039-0.074,0.072-0.118,0.107
					c-0.052,0.031-0.101,0.064-0.169,0.08c-0.066,0.022-0.127,0.031-0.196,0.031c-0.081,0-0.152-0.016-0.238-0.039
					c-0.076-0.033-0.148-0.072-0.222-0.125c-0.069-0.055-0.126-0.123-0.154-0.213c-0.049-0.09-0.063-0.188-0.063-0.301
					c0-0.111,0.02-0.205,0.063-0.301c0.049-0.104,0.123-0.184,0.23-0.254c0.101-0.068,0.216-0.109,0.339-0.109
					c0.074,0,0.142,0.014,0.208,0.027c0.061,0.02,0.105,0.035,0.146,0.055c0.043,0.021,0.077,0.053,0.121,0.086
					c0.035,0.031,0.062,0.064,0.076,0.078c0.014,0.019,0.031,0.045,0.049,0.07c0.006,0.008,0.009,0.02,0.011,0.02v-0.295h0.14
					V-31.391z M13.827-31.403c0.146,0,0.277-0.053,0.398-0.15c0.119-0.115,0.178-0.234,0.178-0.387c0-0.148-0.06-0.283-0.178-0.391
					c-0.12-0.111-0.251-0.166-0.398-0.166c-0.154,0-0.284,0.055-0.392,0.162c-0.106,0.102-0.162,0.236-0.162,0.385
					c0,0.146,0.056,0.281,0.162,0.389C13.542-31.456,13.673-31.403,13.827-31.403z"/>
				<path style="fill:#63635A;" d="M15.085-31.803v0.016v0.008c0,0.012-0.003,0.033-0.005,0.082c-0.001,0.055-0.001,0.09,0,0.102
					c0.002,0.014,0.008,0.043,0.011,0.076c0.005,0.035,0.012,0.065,0.019,0.084c0.017,0.022,0.03,0.045,0.05,0.068
					c0.085,0.104,0.23,0.117,0.418,0.049l0.008,0.119c-0.027,0.008-0.047,0.016-0.052,0.02c-0.008,0.002-0.025,0.004-0.042,0.012
					c-0.013,0-0.035,0-0.046,0c-0.013,0.01-0.036,0.01-0.055,0.01c-0.025,0.002-0.042,0-0.061,0c-0.022-0.01-0.044-0.01-0.067-0.01
					c-0.02-0.008-0.042-0.012-0.064-0.023c-0.02-0.008-0.041-0.02-0.063-0.033c-0.021-0.018-0.044-0.035-0.063-0.055
					c-0.029-0.022-0.054-0.047-0.066-0.082c-0.021-0.041-0.03-0.074-0.042-0.113c-0.004-0.039-0.009-0.07-0.015-0.107
					c-0.004-0.041-0.011-0.078-0.004-0.102c0-0.039,0-0.062-0.006-0.096v-0.024v-1.398h0.146V-31.803z"/>
				<path style="fill:#63635A;" d="M15.894-33.018h0.186v0.232h-0.186V-33.018z M16.055-32.319v-0.262h-0.134v1.412h0.134V-32.319z"
					/>
				<path style="fill:#63635A;" d="M16.607-31.168h-0.135v-1.412h0.135v0.24c0.112-0.184,0.276-0.281,0.475-0.281
					c0.195,0,0.345,0.055,0.447,0.168c0.105,0.107,0.155,0.256,0.155,0.449v0.836h-0.138v-0.779c0-0.357-0.159-0.539-0.482-0.541
					c-0.216,0-0.362,0.123-0.457,0.367V-31.168z"/>
				<path style="fill:#63635A;" d="M18.226-31.819c0.008,0.061,0.02,0.121,0.039,0.182c0.032,0.076,0.074,0.139,0.128,0.193
					c0.047,0.063,0.108,0.102,0.184,0.133c0.074,0.031,0.148,0.051,0.227,0.051c0.088,0,0.168-0.019,0.232-0.051
					c0.049-0.016,0.092-0.049,0.127-0.076v0.156c-0.027,0.018-0.045,0.025-0.072,0.031c-0.088,0.043-0.188,0.066-0.295,0.066
					c-0.104,0-0.197-0.024-0.285-0.063c-0.089-0.035-0.167-0.094-0.228-0.156c-0.066-0.07-0.117-0.146-0.154-0.234
					c-0.031-0.092-0.057-0.182-0.057-0.289v-0.002c0-0.096,0.025-0.191,0.057-0.281c0.037-0.084,0.088-0.166,0.154-0.236
					c0.063-0.068,0.145-0.123,0.23-0.164c0.092-0.041,0.19-0.062,0.291-0.062c0.047,0,0.092,0.014,0.146,0.025
					c0.043,0.016,0.096,0.043,0.149,0.078c0.059,0.039,0.109,0.09,0.148,0.143c0.047,0.057,0.082,0.135,0.111,0.232
					c0.031,0.096,0.043,0.203,0.041,0.324H18.226z M18.795-32.489c-0.08,0-0.154,0.02-0.225,0.047
					c-0.08,0.031-0.136,0.078-0.184,0.129c-0.054,0.06-0.09,0.121-0.122,0.191c-0.02,0.066-0.031,0.117-0.039,0.182h1.031
					c0-0.033-0.014-0.101-0.041-0.189c-0.02-0.061-0.047-0.113-0.07-0.156c-0.029-0.045-0.061-0.078-0.084-0.104
					c-0.025-0.021-0.059-0.043-0.09-0.055c-0.043-0.02-0.072-0.025-0.088-0.035c-0.014,0-0.041-0.008-0.068-0.008
					C18.807-32.487,18.803-32.489,18.795-32.489z"/>
				<path style="fill:#63635A;" d="M21.911-31.391h-0.002c0,0.039-0.012,0.09-0.018,0.166c-0.006,0.057-0.025,0.117-0.064,0.172
					c-0.037,0.061-0.082,0.117-0.143,0.166c-0.06,0.049-0.123,0.09-0.215,0.123c-0.078,0.039-0.166,0.053-0.256,0.053
					c-0.184,0-0.359-0.053-0.541-0.141v-0.176c0.109,0.123,0.287,0.189,0.529,0.189c0.078,0,0.143-0.014,0.197-0.035
					c0.068-0.022,0.113-0.041,0.15-0.066c0.035-0.02,0.074-0.059,0.1-0.104c0.035-0.041,0.049-0.072,0.064-0.104
					c0.014-0.033,0.031-0.066,0.039-0.113c0.006-0.041,0.012-0.066,0.018-0.088c0-0.006,0-0.023,0-0.047v-0.211
					c-0.02,0.039-0.057,0.074-0.086,0.107c-0.035,0.039-0.074,0.072-0.117,0.107c-0.055,0.031-0.107,0.064-0.172,0.08
					c-0.066,0.022-0.121,0.031-0.195,0.031c-0.076,0-0.152-0.016-0.234-0.039c-0.074-0.033-0.152-0.072-0.225-0.125
					c-0.068-0.055-0.121-0.123-0.164-0.213c-0.035-0.09-0.057-0.188-0.057-0.301c0-0.111,0.027-0.205,0.074-0.301
					c0.041-0.104,0.119-0.184,0.225-0.254c0.101-0.068,0.217-0.109,0.344-0.109c0.068,0,0.133,0.014,0.199,0.027
					c0.063,0.02,0.115,0.035,0.15,0.055c0.049,0.021,0.08,0.053,0.113,0.086c0.039,0.031,0.066,0.064,0.078,0.078
					c0.014,0.019,0.031,0.045,0.055,0.07c0.006,0.008,0.012,0.02,0.012,0.02v-0.295h0.141V-31.391z M21.194-31.403
					c0.15,0,0.283-0.053,0.408-0.15c0.115-0.115,0.172-0.234,0.172-0.387c0-0.148-0.057-0.283-0.172-0.391
					c-0.125-0.111-0.258-0.166-0.408-0.166c-0.146,0-0.279,0.055-0.387,0.162c-0.105,0.102-0.154,0.236-0.154,0.385
					c0,0.146,0.049,0.281,0.154,0.389C20.915-31.456,21.047-31.403,21.194-31.403z"/>
				<path style="fill:#63635A;" d="M23.024-31.133c-0.105,0-0.203-0.024-0.293-0.063c-0.078-0.035-0.162-0.094-0.227-0.156
					c-0.066-0.07-0.117-0.146-0.152-0.234c-0.035-0.092-0.053-0.182-0.053-0.289v-0.002c0-0.096,0.017-0.191,0.053-0.281
					c0.035-0.084,0.086-0.166,0.152-0.236c0.064-0.068,0.148-0.123,0.227-0.164c0.098-0.041,0.195-0.062,0.301-0.062
					c0.101,0,0.195,0.021,0.289,0.062c0.09,0.041,0.164,0.094,0.225,0.16c0.068,0.068,0.119,0.146,0.156,0.236
					c0.033,0.08,0.047,0.182,0.047,0.279v0.006c0,0.098-0.014,0.195-0.047,0.281c-0.037,0.09-0.088,0.17-0.156,0.242
					c-0.06,0.064-0.142,0.123-0.225,0.158C23.225-31.157,23.127-31.133,23.024-31.133z M23.032-31.26
					c0.078,0,0.156-0.019,0.236-0.051c0.063-0.037,0.127-0.076,0.174-0.133c0.053-0.055,0.1-0.117,0.119-0.193
					c0.033-0.072,0.049-0.15,0.049-0.238v-0.002c0-0.08-0.016-0.164-0.049-0.244c-0.027-0.07-0.072-0.137-0.123-0.197
					c-0.047-0.047-0.107-0.092-0.185-0.125c-0.07-0.025-0.15-0.045-0.229-0.045c-0.082,0-0.162,0.02-0.232,0.047
					c-0.072,0.031-0.135,0.078-0.188,0.129c-0.039,0.06-0.088,0.121-0.121,0.191c-0.023,0.074-0.037,0.156-0.037,0.238v0.006
					c0,0.09,0.014,0.168,0.045,0.24c0.029,0.076,0.074,0.139,0.123,0.193c0.045,0.063,0.117,0.102,0.186,0.133
					C22.872-31.28,22.944-31.26,23.032-31.26z"/>
				<path style="fill:#63635A;" d="M24.282-31.819c0.012,0.061,0.025,0.121,0.051,0.182c0.023,0.076,0.068,0.139,0.125,0.193
					c0.041,0.063,0.113,0.102,0.184,0.133c0.068,0.031,0.149,0.051,0.219,0.051c0.092,0,0.168-0.019,0.236-0.051
					c0.053-0.016,0.094-0.049,0.137-0.076v0.156c-0.031,0.018-0.058,0.025-0.072,0.031c-0.092,0.043-0.195,0.066-0.301,0.066
					c-0.104,0-0.199-0.024-0.289-0.063c-0.088-0.035-0.162-0.094-0.225-0.156c-0.066-0.07-0.117-0.146-0.156-0.234
					c-0.033-0.092-0.057-0.182-0.057-0.289v-0.002c0-0.096,0.024-0.191,0.057-0.281c0.039-0.084,0.09-0.166,0.156-0.236
					c0.063-0.068,0.145-0.123,0.231-0.164c0.086-0.041,0.18-0.062,0.283-0.062c0.055,0,0.102,0.014,0.145,0.025
					c0.047,0.016,0.102,0.043,0.16,0.078c0.049,0.039,0.101,0.09,0.146,0.143c0.049,0.057,0.084,0.135,0.113,0.232
					c0.025,0.096,0.041,0.203,0.041,0.324H24.282z M24.86-32.489c-0.078,0-0.158,0.02-0.229,0.047
					c-0.072,0.031-0.133,0.078-0.189,0.129c-0.041,0.06-0.086,0.121-0.109,0.191c-0.025,0.066-0.039,0.117-0.051,0.182h1.039
					c0-0.033-0.019-0.101-0.035-0.189c-0.025-0.061-0.053-0.113-0.074-0.156c-0.037-0.045-0.063-0.078-0.088-0.104
					c-0.027-0.021-0.055-0.043-0.096-0.055c-0.035-0.02-0.063-0.025-0.084-0.035c-0.018,0-0.037-0.008-0.066-0.008
					C24.87-32.487,24.86-32.489,24.86-32.489z"/>
				<path style="fill:#63635A;" d="M26.641-32.34c-0.01-0.006-0.029-0.023-0.053-0.035c-0.021-0.014-0.064-0.035-0.133-0.057
					c-0.068-0.031-0.131-0.037-0.189-0.055c-0.051-0.01-0.125,0-0.188,0.021c-0.07,0.021-0.125,0.055-0.17,0.119
					c-0.037,0.066-0.043,0.129-0.019,0.188c0.037,0.055,0.082,0.09,0.146,0.111c0.07,0.025,0.143,0.051,0.23,0.082
					c0.08,0.031,0.162,0.055,0.242,0.088c0.066,0.029,0.133,0.072,0.178,0.131c0.047,0.064,0.064,0.131,0.057,0.221
					c-0.01,0.111-0.047,0.207-0.123,0.266c-0.066,0.061-0.143,0.102-0.238,0.113c-0.096,0.014-0.189,0-0.287-0.01
					c-0.094-0.02-0.182-0.043-0.256-0.068c-0.074-0.035-0.129-0.07-0.152-0.102l0.066-0.117c0.012,0.008,0.043,0.027,0.076,0.045
					c0.033,0.02,0.088,0.047,0.18,0.08c0.098,0.039,0.17,0.055,0.246,0.055c0.123,0,0.207-0.031,0.27-0.084
					c0.051-0.051,0.08-0.127,0.08-0.213c0-0.055-0.029-0.1-0.074-0.144c-0.045-0.033-0.111-0.063-0.172-0.088
					c-0.066-0.023-0.142-0.049-0.25-0.07c-0.133-0.029-0.236-0.086-0.305-0.172c-0.066-0.086-0.09-0.184-0.051-0.289
					c0.029-0.102,0.098-0.18,0.205-0.234c0.101-0.049,0.211-0.07,0.324-0.049c0.064,0.008,0.133,0.027,0.205,0.049
					c0.066,0.029,0.125,0.055,0.166,0.076l0.057,0.031L26.641-32.34z"/>
				<path style="fill:#63635A;" d="M27.999-32.331c0.019-0.031,0.039-0.059,0.072-0.086c0.016-0.027,0.055-0.063,0.096-0.092
					c0.041-0.033,0.096-0.059,0.156-0.082c0.055-0.018,0.133-0.031,0.203-0.031c0.094,0,0.178,0.021,0.26,0.055
					c0.07,0.045,0.133,0.088,0.17,0.152c0.041,0.059,0.072,0.129,0.096,0.191c0.019,0.074,0.027,0.141,0.027,0.219v0.836h-0.137
					v-0.805c0-0.014,0-0.023,0-0.039c0-0.006-0.006-0.035-0.006-0.07c-0.012-0.039-0.012-0.066-0.018-0.102
					c-0.01-0.033-0.023-0.066-0.043-0.113c-0.025-0.033-0.053-0.066-0.08-0.092c-0.029-0.033-0.076-0.055-0.131-0.074
					c-0.051-0.023-0.107-0.033-0.176-0.033c-0.217,0-0.373,0.117-0.49,0.348v0.981h-0.137v-2.033h0.137V-32.331z"/>
				<path style="fill:#63635A;" d="M29.622-31.819c0.008,0.061,0.025,0.121,0.043,0.182c0.033,0.076,0.072,0.139,0.125,0.193
					c0.051,0.063,0.111,0.102,0.18,0.133c0.076,0.031,0.15,0.051,0.238,0.051c0.078,0,0.156-0.019,0.229-0.051
					c0.045-0.016,0.084-0.049,0.131-0.076v0.156c-0.023,0.018-0.059,0.025-0.076,0.031c-0.098,0.043-0.188,0.066-0.295,0.066
					c-0.104,0-0.195-0.024-0.289-0.063c-0.086-0.035-0.162-0.094-0.232-0.156c-0.07-0.07-0.115-0.146-0.147-0.234
					c-0.035-0.092-0.055-0.182-0.055-0.289v-0.002c0-0.096,0.019-0.191,0.055-0.281c0.031-0.084,0.076-0.166,0.147-0.236
					c0.07-0.068,0.146-0.123,0.24-0.164c0.086-0.041,0.184-0.062,0.293-0.062c0.041,0,0.088,0.014,0.137,0.025
					c0.047,0.016,0.092,0.043,0.15,0.078c0.064,0.039,0.115,0.09,0.156,0.143c0.039,0.057,0.074,0.135,0.113,0.232
					c0.027,0.096,0.033,0.203,0.033,0.324H29.622z M30.196-32.489c-0.08,0-0.154,0.02-0.234,0.047
					c-0.066,0.031-0.123,0.078-0.178,0.129c-0.053,0.06-0.094,0.121-0.119,0.191c-0.018,0.066-0.035,0.117-0.043,0.182h1.033
					c-0.004-0.033-0.014-0.101-0.041-0.189c-0.014-0.061-0.041-0.113-0.07-0.156c-0.035-0.045-0.059-0.078-0.084-0.104
					c-0.029-0.021-0.061-0.043-0.096-0.055c-0.031-0.02-0.061-0.025-0.078-0.035c-0.021,0-0.041-0.008-0.065-0.008
					C30.208-32.487,30.2-32.489,30.196-32.489z"/>
				<path style="fill:#63635A;" d="M31.922-32.454c-0.027,0-0.063,0-0.094,0.002c-0.031,0-0.08,0.016-0.127,0.041
					c-0.059,0.021-0.107,0.055-0.152,0.092c-0.043,0.039-0.086,0.096-0.137,0.176c-0.041,0.088-0.07,0.178-0.092,0.285v0.689h-0.135
					v-1.412h0.135v0.262v0.123c0.082-0.16,0.186-0.27,0.285-0.322c0.102-0.057,0.207-0.082,0.316-0.082V-32.454z"/>
				<path style="fill:#63635A;" d="M31.959-31.819c0.004,0.061,0.019,0.121,0.047,0.182c0.023,0.076,0.063,0.139,0.117,0.193
					c0.055,0.063,0.113,0.102,0.186,0.133c0.07,0.031,0.146,0.051,0.229,0.051c0.084,0,0.164-0.019,0.238-0.051
					c0.043-0.016,0.086-0.049,0.121-0.076v0.156c-0.027,0.018-0.053,0.025-0.074,0.031c-0.088,0.043-0.186,0.066-0.291,0.066
					c-0.102,0-0.201-0.024-0.291-0.063c-0.084-0.035-0.166-0.094-0.231-0.156c-0.068-0.07-0.109-0.146-0.15-0.234
					c-0.031-0.092-0.051-0.182-0.051-0.289v-0.002c0-0.096,0.02-0.191,0.051-0.281c0.041-0.084,0.082-0.166,0.154-0.236
					c0.064-0.068,0.15-0.123,0.232-0.164c0.09-0.041,0.188-0.062,0.291-0.062c0.045,0,0.09,0.014,0.148,0.025
					c0.035,0.016,0.09,0.043,0.152,0.078c0.053,0.039,0.096,0.09,0.152,0.143c0.039,0.057,0.072,0.135,0.098,0.232
					c0.029,0.096,0.043,0.203,0.043,0.324H31.959z M32.532-32.489c-0.088,0-0.154,0.02-0.232,0.047
					c-0.072,0.031-0.131,0.078-0.186,0.129c-0.045,0.06-0.084,0.121-0.107,0.191c-0.027,0.066-0.043,0.117-0.047,0.182h1.031
					c0-0.033-0.014-0.101-0.041-0.189c-0.017-0.061-0.043-0.113-0.078-0.156c-0.027-0.045-0.049-0.078-0.074-0.104
					c-0.033-0.021-0.063-0.043-0.096-0.055c-0.037-0.02-0.065-0.025-0.084-0.035c-0.018,0-0.041-0.008-0.063-0.008
					C32.549-32.487,32.538-32.489,32.532-32.489z"/>
			</g>
		</g>
		<polygon style="fill:#63635A;" points="7.724,-31.596 -3.526,-31.565 -3.526,-31.709 7.724,-31.739 		"/>
	</g>
	<g>
		<linearGradient id="SVGID_1_" gradientUnits="userSpaceOnUse" x1="-7.6141" y1="-38.1766" x2="33.4669" y2="-36.0927">
			<stop  offset="0.3131" style="stop-color:#F96791"/>
			<stop  offset="1" style="stop-color:#BD1226"/>
		</linearGradient>
		<path style="fill:url(#SVGID_1_);" d="M0.309-41.581h1.222l2.729,7.51H2.624l-0.503-1.547h-2.927l-0.479,1.547h-1.638l2.489-7.01
			C-0.3-41.415-0.055-41.581,0.309-41.581z M0.659-40.075l-1.048,3.189h2.097L0.659-40.075z"/>
		
			<linearGradient id="SVGID_00000124869246811551652270000005079303609936529048_" gradientUnits="userSpaceOnUse" x1="-7.5999" y1="-38.491" x2="33.4858" y2="-36.4069">
			<stop  offset="0.3131" style="stop-color:#F96791"/>
			<stop  offset="1" style="stop-color:#BD1226"/>
		</linearGradient>
		<path style="fill:url(#SVGID_00000124869246811551652270000005079303609936529048_);" d="M6.097-40.862v1.75
			c0.159-0.281,0.395-0.504,0.7-0.68c0.262-0.149,0.583-0.217,0.96-0.217c0.686,0,1.245,0.283,1.684,0.852
			c0.435,0.564,0.653,1.307,0.653,2.205c0,0.9-0.218,1.635-0.653,2.205c-0.221,0.275-0.514,0.475-0.887,0.6
			c-0.37,0.125-0.739,0.188-1.102,0.188c-0.697,0-1.345-0.186-1.945-0.543c-0.599-0.369-0.897-1.066-0.897-2.101v-5.002h0.744
			c0.203,0,0.38,0.074,0.526,0.221C6.023-41.245,6.097-41.067,6.097-40.862z M8.588-37.016c0-0.523-0.108-0.932-0.328-1.227
			C8.041-38.545,7.743-38.7,7.364-38.7c-0.406,0-0.719,0.148-0.94,0.438c-0.217,0.303-0.327,0.723-0.327,1.246
			c0,0.609,0.103,1.055,0.306,1.328c0.219,0.309,0.525,0.461,0.915,0.461c0.411,0,0.723-0.152,0.941-0.461
			C8.48-35.995,8.588-36.438,8.588-37.016z"/>
		
			<linearGradient id="SVGID_00000095310031700285810270000015122961940901031079_" gradientUnits="userSpaceOnUse" x1="-7.624" y1="-38.0145" x2="33.4612" y2="-35.9304">
			<stop  offset="0.3131" style="stop-color:#F96791"/>
			<stop  offset="1" style="stop-color:#BD1226"/>
		</linearGradient>
		<path style="fill:url(#SVGID_00000095310031700285810270000015122961940901031079_);" d="M10.227-35.995h1.482
			c0.016,0.295,0.124,0.514,0.332,0.66c0.214,0.144,0.507,0.217,0.872,0.217c0.261,0,0.489-0.051,0.678-0.154
			c0.176-0.102,0.259-0.24,0.259-0.416c0-0.26-0.303-0.459-0.916-0.59c-0.261-0.043-0.457-0.086-0.59-0.129
			c-0.768-0.189-1.288-0.416-1.549-0.674c-0.291-0.268-0.438-0.615-0.438-1.051c0-0.553,0.213-1.014,0.632-1.373
			c0.437-0.338,1.009-0.504,1.705-0.504c0.758,0,1.363,0.166,1.813,0.504c0.424,0.359,0.648,0.838,0.681,1.414h-0.945
			c-0.274,0-0.483-0.119-0.631-0.367c-0.057-0.063-0.116-0.121-0.173-0.176c-0.176-0.131-0.418-0.199-0.722-0.199
			c-0.292,0-0.51,0.045-0.657,0.133c-0.129,0.084-0.194,0.219-0.194,0.391c0,0.234,0.376,0.432,1.133,0.594
			c0.09,0.029,0.165,0.051,0.232,0.064c0.065,0.018,0.124,0.02,0.186,0.02c0.737,0.191,1.255,0.412,1.547,0.656
			c0.277,0.262,0.417,0.611,0.417,1.051c0,0.641-0.233,1.137-0.702,1.484c-0.437,0.316-1.088,0.481-1.963,0.481
			c-0.833,0-1.451-0.168-1.854-0.502c-0.424-0.34-0.634-0.822-0.634-1.463V-35.995z"/>
		
			<linearGradient id="SVGID_00000036952988810633889580000011908751217409601469_" gradientUnits="userSpaceOnUse" x1="-7.5701" y1="-39.0609" x2="33.5131" y2="-36.9769">
			<stop  offset="0.3131" style="stop-color:#F96791"/>
			<stop  offset="1" style="stop-color:#BD1226"/>
		</linearGradient>
		<path style="fill:url(#SVGID_00000036952988810633889580000011908751217409601469_);" d="M18.194-34.071
			c-0.478,0.031-0.998,0.021-1.56-0.021c-0.561-0.045-0.838-0.4-0.838-1.066v-6.422h0.787c0.186,0,0.355,0.072,0.502,0.215
			c0.146,0.148,0.217,0.322,0.217,0.523v0.984h0.893v0.307c0,0.217-0.066,0.396-0.214,0.535c-0.148,0.141-0.321,0.205-0.526,0.205
			h-0.152v3.234c0,0.248,0.145,0.375,0.437,0.375h0.456V-34.071z"/>
		
			<linearGradient id="SVGID_00000049917322170594892440000010214293083039483816_" gradientUnits="userSpaceOnUse" x1="-7.6175" y1="-38.3732" x2="33.485" y2="-36.2883">
			<stop  offset="0.3131" style="stop-color:#F96791"/>
			<stop  offset="1" style="stop-color:#BD1226"/>
		</linearGradient>
		<path style="fill:url(#SVGID_00000049917322170594892440000010214293083039483816_);" d="M18.328-34.071v-2.814
			c0-0.568,0.084-1.045,0.249-1.43c0.172-0.389,0.398-0.695,0.691-0.928c0.277-0.221,0.6-0.381,0.973-0.482
			c0.369-0.103,0.752-0.152,1.146-0.152c0.029,0,0.066,0,0.108,0c0.043,0,0.082,0,0.107,0v1.549h-0.5
			c-0.424,0-0.734,0.101-0.94,0.307c-0.201,0.205-0.307,0.521-0.307,0.961v2.99H18.328z"/>
		
			<linearGradient id="SVGID_00000150800826984784603360000001700060118363194551_" gradientUnits="userSpaceOnUse" x1="-7.5936" y1="-38.5805" x2="33.4893" y2="-36.4966">
			<stop  offset="0.3131" style="stop-color:#F96791"/>
			<stop  offset="1" style="stop-color:#BD1226"/>
		</linearGradient>
		<path style="fill:url(#SVGID_00000150800826984784603360000001700060118363194551_);" d="M25.469-34.311
			c-0.305,0.164-0.629,0.26-0.971,0.295c-0.346,0.039-0.645,0.057-0.906,0.057c-0.523,0-0.982-0.145-1.375-0.43
			c-0.397-0.281-0.59-0.754-0.59-1.404c0-0.613,0.176-1.051,0.533-1.314c0.355-0.258,0.814-0.432,1.363-0.523
			c0.074,0,0.166-0.006,0.264-0.033c0.105-0.02,0.221-0.041,0.35-0.051c0.641-0.088,0.963-0.281,0.963-0.568
			c0-0.223-0.115-0.359-0.34-0.428c-0.227-0.064-0.434-0.1-0.623-0.1c-0.199,0-0.387,0.033-0.545,0.09
			c-0.162,0.057-0.275,0.17-0.348,0.328H21.78c0.057-0.453,0.264-0.822,0.613-1.111c0.389-0.338,0.951-0.504,1.68-0.504
			c0.813,0,1.428,0.137,1.836,0.412c0.422,0.291,0.635,0.701,0.635,1.225v1.992c0,0.576-0.107,1.033-0.316,1.357
			C26.008-34.694,25.76-34.458,25.469-34.311z M25.12-36.997c-0.199,0.101-0.488,0.197-0.852,0.283l-0.5,0.109
			c-0.262,0.072-0.451,0.166-0.566,0.283c-0.102,0.164-0.156,0.324-0.156,0.48c0,0.223,0.068,0.395,0.199,0.523
			c0.131,0.119,0.32,0.174,0.568,0.174c0.406,0,0.721-0.111,0.959-0.346c0.232-0.232,0.348-0.555,0.348-0.959V-36.997z"/>
		
			<linearGradient id="SVGID_00000085216132053217898510000006821710568712973725_" gradientUnits="userSpaceOnUse" x1="-7.582" y1="-38.8531" x2="33.5034" y2="-36.769">
			<stop  offset="0.3131" style="stop-color:#F96791"/>
			<stop  offset="1" style="stop-color:#BD1226"/>
		</linearGradient>
		<path style="fill:url(#SVGID_00000085216132053217898510000006821710568712973725_);" d="M30.799-35.858h1.092
			c-0.16,0.609-0.463,1.074-0.916,1.396c-0.449,0.334-1.02,0.502-1.701,0.502c-0.834,0-1.482-0.272-1.947-0.809
			c-0.467-0.523-0.701-1.275-0.701-2.248c0-0.932,0.23-1.662,0.68-2.186c0.463-0.541,1.115-0.807,1.943-0.807
			c0.871,0,1.551,0.26,2.033,0.785c0.26,0.32,0.449,0.691,0.56,1.115h-1.519c-0.078-0.148-0.148-0.256-0.221-0.328
			c-0.188-0.205-0.459-0.307-0.807-0.307c-0.322,0-0.582,0.102-0.787,0.307c-0.267,0.289-0.392,0.772-0.392,1.44
			c0,0.672,0.125,1.143,0.392,1.42c0.186,0.23,0.473,0.35,0.848,0.35c0.248,0,0.461-0.051,0.637-0.152
			c0.045-0.016,0.082-0.037,0.123-0.078c0.029-0.037,0.074-0.074,0.121-0.119c0.025-0.041,0.086-0.102,0.17-0.176
			C30.491-35.825,30.624-35.858,30.799-35.858z"/>
		
			<linearGradient id="SVGID_00000183228891258646243240000013435078922742518153_" gradientUnits="userSpaceOnUse" x1="-7.5203" y1="-39.896" x2="33.5556" y2="-37.8124">
			<stop  offset="0.3131" style="stop-color:#F96791"/>
			<stop  offset="1" style="stop-color:#BD1226"/>
		</linearGradient>
		<path style="fill:url(#SVGID_00000183228891258646243240000013435078922742518153_);" d="M34.711-34.071
			c-0.481,0.031-1.004,0.021-1.563-0.021c-0.561-0.045-0.844-0.4-0.844-1.066v-6.422h0.789c0.191,0,0.359,0.072,0.5,0.215
			c0.15,0.148,0.219,0.322,0.219,0.523v0.984h0.899v0.307c0,0.217-0.076,0.396-0.221,0.535c-0.146,0.141-0.318,0.205-0.525,0.205
			h-0.152v3.234c0,0.248,0.149,0.375,0.438,0.375h0.461V-34.071z"/>
	</g>
</g>
<radialGradient id="SVGID_00000111886877164366758970000018077263431022945921_" cx="402.6281" cy="334.5014" r="18.4802" fx="389.9878" fy="334.9417" gradientTransform="matrix(1.1151 -0.0087 -0.0043 0.2132 -427.8081 -112.2442)" gradientUnits="userSpaceOnUse">
	<stop  offset="0" style="stop-color:#272727"/>
	<stop  offset="0.0453" style="stop-color:#494949"/>
	<stop  offset="0.1107" style="stop-color:#737373"/>
	<stop  offset="0.1817" style="stop-color:#999999"/>
	<stop  offset="0.2572" style="stop-color:#B9B9B9"/>
	<stop  offset="0.3388" style="stop-color:#D3D3D3"/>
	<stop  offset="0.4287" style="stop-color:#E6E6E6"/>
	<stop  offset="0.5314" style="stop-color:#F4F4F4"/>
	<stop  offset="0.6579" style="stop-color:#FDFDFD"/>
	<stop  offset="0.8787" style="stop-color:#FFFFFF"/>
</radialGradient>
<path style="opacity:0.52;fill:url(#SVGID_00000111886877164366758970000018077263431022945921_);" d="M41.741-44.899
	c-0.035,2.18-9.988,4.053-22.172,4.156C7.336-40.633-2.502-42.34-2.459-44.518c0.039-2.219,9.959-4.094,22.182-4.193
	C31.924-48.815,41.788-47.11,41.741-44.899z"/>
<g>
	
		<linearGradient id="SVGID_00000105409546806604925830000017615926565395557795_" gradientUnits="userSpaceOnUse" x1="28.3666" y1="-53.5928" x2="6.7827" y2="-64.177">
		<stop  offset="0.3131" style="stop-color:#F96791"/>
		<stop  offset="1" style="stop-color:#BD1226"/>
	</linearGradient>
	<path style="fill-rule:evenodd;clip-rule:evenodd;fill:url(#SVGID_00000105409546806604925830000017615926565395557795_);" d="
		M12.525-71.429c-6.808,3.955-9.633,9.6-7.881,14.482c1.61,4.555,8.615,6.927,27.88-0.546c-3.247,0.654-13.559,0.736-20.281-0.982
		C5.519-60.193,1.932-63.847,12.525-71.429L12.525-71.429z"/>
	
		<linearGradient id="SVGID_00000165934506944238485850000002418472013635905725_" gradientUnits="userSpaceOnUse" x1="15.7497" y1="-71.0548" x2="22.4992" y2="-51.3879">
		<stop  offset="0.3131" style="stop-color:#F96791"/>
		<stop  offset="1" style="stop-color:#BD1226"/>
	</linearGradient>
	<path style="fill-rule:evenodd;clip-rule:evenodd;fill:url(#SVGID_00000165934506944238485850000002418472013635905725_);" d="
		M15.377-49.911c5.537,3.328,10.565,3.137,12.74-0.846c2.288-4.2-0.395-13.036-18.898-27.709
		c2.769,3.055,10.028,14.019,13.277,21.709C25.434-49.774,25.264-45.083,15.377-49.911L15.377-49.911z"/>
	
		<linearGradient id="SVGID_00000021094021950491112690000017707097699429384331_" gradientUnits="userSpaceOnUse" x1="7.8932" y1="-46.9928" x2="20.4768" y2="-67.8266">
		<stop  offset="0.3131" style="stop-color:#F96791"/>
		<stop  offset="1" style="stop-color:#BD1226"/>
	</linearGradient>
	<path style="fill-rule:evenodd;clip-rule:evenodd;fill:url(#SVGID_00000021094021950491112690000017707097699429384331_);" d="
		M25.801-62.892c1.158-7.883-1.92-11.837-7.571-9.955C12.808-71.046,6.903-62.374,5.801-44.51c0.65-2.51,4.774-11.782,9.548-18.873
		C20.746-71.402,26.367-75.847,25.801-62.892L25.801-62.892z"/>
</g>
</svg>
